<?xml version="1.0" encoding="UTF-8" standalone="no"?>
<svg
   xmlns:dc="http://purl.org/dc/elements/1.1/"
   xmlns:cc="http://creativecommons.org/ns#"
   xmlns:rdf="http://www.w3.org/1999/02/22-rdf-syntax-ns#"
   xmlns:svg="http://www.w3.org/2000/svg"
   xmlns="http://www.w3.org/2000/svg"
   xmlns:xlink="http://www.w3.org/1999/xlink"
   xmlns:sodipodi="http://sodipodi.sourceforge.net/DTD/sodipodi-0.dtd"
   xmlns:inkscape="http://www.inkscape.org/namespaces/inkscape"
   width="264.58334mm"
   height="264.58334mm"
   viewBox="0 0 264.58334 264.58334"
   version="1.1"
   id="svg8"
   sodipodi:docname="Instagram_(2022)_(Symbol).svg"
   inkscape:version="1.0.1 (3bc2e813f5, 2020-09-07)">
  <defs
     id="defs2">
    <linearGradient
       inkscape:collect="always"
       id="d">
      <stop
         offset="0"
         stop-color="#ff005f"
         id="stop848" />
      <stop
         offset="1"
         stop-color="#fc01d8"
         id="stop850" />
    </linearGradient>
    <linearGradient
       id="c">
      <stop
         offset="0"
         stop-color="#780cff"
         id="stop853" />
      <stop
         offset="0.19437101"
         stop-color="#780cff"
         id="stop1106"
         style="stop-color:#780cff;stop-opacity:1" />
      <stop
         stop-color="#820bff"
         offset="1"
         stop-opacity="0"
         id="stop855" />
    </linearGradient>
    <linearGradient
       id="a-4">
      <stop
         offset="0"
         stop-color="#fd5"
         id="stop14"
         style="stop-color:#ffcc00;stop-opacity:1" />
      <stop
         offset="0.12416067"
         stop-color="#fd5"
         id="stop16"
         style="stop-color:#ffcc00;stop-opacity:1" />
      <stop
         offset="0.56719624"
         stop-color="#fd5"
         id="stop2487"
         style="stop-color:#fe4a05;stop-opacity:1" />
      <stop
         offset="0.69420281"
         stop-color="#ff543e"
         id="stop18"
         style="stop-color:#ff0f3f;stop-opacity:1" />
      <stop
         offset="1"
         stop-color="#ff543e"
         id="stop2515"
         style="stop-color:#fe0657;stop-opacity:0" />
    </linearGradient>
    <radialGradient
       inkscape:collect="always"
       xlink:href="#c"
       id="radialGradient1064"
       cx="17.294085"
       cy="104.77726"
       fx="17.294085"
       fy="104.77726"
       r="132.29167"
       gradientTransform="matrix(-1.2066175,0.37556818,-0.16812484,-0.54014079,80.427872,128.909)"
       gradientUnits="userSpaceOnUse" />
    <radialGradient
       inkscape:collect="always"
       xlink:href="#a-4"
       id="radialGradient1070"
       gradientUnits="userSpaceOnUse"
       gradientTransform="matrix(-1.3123143e-7,-1.5964377,1.693789,-1.0057868e-4,685.96921,287.63563)"
       cx="-40.919666"
       cy="-359.92737"
       fx="-40.919666"
       fy="-359.92737"
       r="132.29167" />
    <radialGradient
       inkscape:collect="always"
       xlink:href="#d"
       id="radialGradient1104"
       cx="349.52673"
       cy="219.49358"
       fx="349.52673"
       fy="219.49358"
       r="132.29167"
       gradientTransform="matrix(-1.2299112,0.34686534,-0.24989968,-0.88609144,746.83002,265.30141)"
       gradientUnits="userSpaceOnUse" />
    <linearGradient
       inkscape:collect="always"
       id="linearGradient2485">
      <stop
         style="stop-color:#ffcc00;stop-opacity:1"
         offset="0"
         id="stop2481" />
      <stop
         style="stop-color:#ffcc00;stop-opacity:0"
         offset="1"
         id="stop2483" />
    </linearGradient>
    <radialGradient
       inkscape:collect="always"
       xlink:href="#linearGradient2485"
       id="radialGradient1167"
       gradientUnits="userSpaceOnUse"
       gradientTransform="matrix(0.331376,-0.57094221,0.74331351,0.4314021,428.80689,526.89725)"
       cx="43.638363"
       cy="-401.23001"
       fx="43.638363"
       fy="-401.23001"
       r="132.29167" />
  </defs>
  <sodipodi:namedview
     id="base"
     pagecolor="#ffffff"
     bordercolor="#666666"
     borderopacity="1.0"
     inkscape:pageopacity="0.0"
     inkscape:pageshadow="2"
     inkscape:zoom="0.35"
     inkscape:cx="537.8521"
     inkscape:cy="450.61637"
     inkscape:document-units="mm"
     inkscape:current-layer="layer1"
     inkscape:document-rotation="0"
     showgrid="false"
     showguides="false"
     inkscape:window-width="1366"
     inkscape:window-height="706"
     inkscape:window-x="-8"
     inkscape:window-y="-8"
     inkscape:window-maximized="1">
    <sodipodi:guide
       position="318.25593,57.452388"
       orientation="-0.70710678,-0.70710678"
       id="guide842" />
  </sodipodi:namedview>
  <metadata
     id="metadata5">
    <rdf:RDF>
      <cc:Work
         rdf:about="">
        <dc:format>image/svg+xml</dc:format>
        <dc:type
           rdf:resource="http://purl.org/dc/dcmitype/StillImage" />
      </cc:Work>
    </rdf:RDF>
  </metadata>
  <g
     inkscape:label="Layer 1"
     inkscape:groupmode="layer"
     id="layer1"
     transform="translate(-6.0476226,-68.035713)">
    <g
       id="g1111">
      <path
         d="m 138.35172,68.035713 c -35.9286,0 -40.437597,0.15699 -54.548857,0.79869 -14.08369,0.64444 -23.69698,2.87247 -32.10862,6.14155 -8.70103,3.37647 -16.08188,7.89312 -23.43516,15.24371 -7.35881,7.34783 -11.87882,14.723207 -15.26884,23.415017 -3.2797504,8.40814 -5.5122004,18.01706 -6.1461104,32.08477 -0.63115,14.10082 -0.79651,18.60919 -0.79651,54.51114 0,35.9019 0.15986,40.39377 0.79927,54.49451 0.64768,14.07327 2.87738,23.67944 6.1461104,32.08483 3.38175,8.69455 7.90176,16.06991 15.25781,23.41776 7.35052,7.35331 14.73138,11.88104 23.42689,15.25746 8.41715,3.26908 18.0332,5.49711 32.11414,6.1416 14.11127,0.64166 18.617487,0.79865 54.543307,0.79865 35.93134,0 40.42655,-0.15699 54.53781,-0.79865 14.08371,-0.64449 23.70799,-2.87252 32.12514,-6.1416 8.69828,-3.37642 16.06814,-7.90415 23.41868,-15.25746 7.35879,-7.34785 11.87881,-14.72321 15.26882,-23.41502 3.2522,-8.40813 5.48463,-18.01704 6.14611,-32.0848 0.63388,-14.10077 0.79925,-18.59538 0.79925,-54.49728 0,-35.90195 -0.16536,-40.40756 -0.79925,-54.5084 -0.66148,-14.07321 -2.89391,-23.67937 -6.14611,-32.08477 -3.39001,-8.69455 -7.91004,-16.069927 -15.26882,-23.417757 -7.35884,-7.35333 -14.71764,-11.86999 -23.42692,-15.24371 -8.43369,-3.26908 -18.05248,-5.49711 -32.13616,-6.14155 -14.11129,-0.6417 -18.60374,-0.79869 -54.54334,-0.79869 z m -11.86781,23.82263 c 3.52229,-0.005 7.45251,0 11.86781,0 35.32224,0 39.50875,0.12668 53.45738,0.76012 12.89859,0.58937 19.89906,2.74303 24.5624,4.55245 6.17372,2.39603 10.5752,5.260257 15.20268,9.887067 4.63026,4.62682 7.4966,9.03332 9.89992,15.20241 1.8108,4.65436 3.96879,11.64966 4.55584,24.53866 0.63391,13.93552 0.77175,18.12174 0.77175,53.4012 0,35.2795 -0.13784,39.46571 -0.77175,53.40124 -0.5898,12.88896 -2.74505,19.88429 -4.55584,24.53866 -2.39778,6.1691 -5.26966,10.56183 -9.89992,15.18587 -4.63024,4.62683 -9.02623,7.49104 -15.20268,9.88708 -4.65781,1.81771 -11.6638,3.96586 -24.56238,4.5552 -13.94589,0.63344 -18.13516,0.77113 -53.4574,0.77113 -35.32503,0 -39.511537,-0.13769 -53.457437,-0.77113 -12.89858,-0.59484 -19.89907,-2.74855 -24.56517,-4.55796 -6.17368,-2.39602 -10.58344,-5.26024 -15.21369,-9.88706 -4.63026,-4.62682 -7.49661,-9.02232 -9.89994,-15.19413 -1.81075,-4.65437 -3.96879,-11.64971 -4.55585,-24.53872 -0.63389,-13.93552 -0.76068,-18.12166 -0.76068,-53.42322 0,-35.3015 0.12681,-39.46568 0.76068,-53.4012 0.58982,-12.889 2.7451,-19.88431 4.55585,-24.54417 2.39781,-6.1691 5.26968,-10.57559 9.89994,-15.20242 4.63025,-4.62681 9.04001,-7.491037 15.21369,-9.892577 4.66334,-1.81768 11.66659,-3.96584 24.56517,-4.55797 12.20403,-0.5508 16.933507,-0.71605 41.589637,-0.74359 z m 82.48473,21.949837 c -8.76444,0 -15.87516,7.09721 -15.87516,15.85787 0,8.75792 7.11072,15.86338 15.87516,15.86338 8.7644,0 15.87516,-7.10546 15.87516,-15.86338 0,-8.75791 -7.11076,-15.86338 -15.87516,-15.86338 z M 138.35172,132.343 c -37.51889,0 -67.938017,30.39656 -67.938017,67.88759 0,37.49097 30.419127,67.87375 67.938017,67.87375 37.51885,0 67.92693,-30.38278 67.92693,-67.87375 0,-37.49103 -30.41083,-67.88759 -67.92975,-67.88759 z m 0,23.8226 c 24.35292,0 44.09764,19.72737 44.09764,44.06499 0,24.33482 -19.74473,44.06493 -44.09764,44.06493 -24.35573,0 -44.097697,-19.73011 -44.097697,-44.06493 0,-24.33762 19.741977,-44.06499 44.097697,-44.06499 z"
         id="path1092"
         inkscape:connector-curvature="0"
         style="fill:url(#radialGradient1104);fill-opacity:1;stroke-width:0.358224" />
      <path
         d="m 138.35172,68.035713 c -35.9286,0 -40.437602,0.15699 -54.548862,0.79869 -14.08369,0.64444 -23.696985,2.87247 -32.10862,6.14155 -8.701035,3.37647 -16.081883,7.89312 -23.435163,15.24371 -7.358807,7.34783 -11.878816,14.723207 -15.268833,23.415017 -3.2797574,8.40814 -5.5121994,18.01706 -6.1461094,32.08477 -0.631154,14.10082 -0.79651,18.60919 -0.79651,54.51114 0,35.9019 0.159856,40.39377 0.799266,54.49451 0.647681,14.07327 2.877381,23.67944 6.1461104,32.08483 3.381746,8.69455 7.901755,16.06991 15.257805,23.41776 7.350523,7.35331 14.731385,11.88104 23.426893,15.25746 8.417148,3.26908 18.033201,5.49711 32.114141,6.1416 14.11127,0.64166 18.617492,0.79865 54.543312,0.79865 35.93134,0 40.42655,-0.15699 54.53781,-0.79865 14.08371,-0.64449 23.70799,-2.87252 32.12514,-6.1416 8.69828,-3.37642 16.06814,-7.90415 23.41868,-15.25746 7.35879,-7.34785 11.87881,-14.72321 15.26882,-23.41502 3.2522,-8.40813 5.48463,-18.01704 6.14611,-32.0848 0.63388,-14.10077 0.79925,-18.59538 0.79925,-54.49728 0,-35.90195 -0.16536,-40.40756 -0.79925,-54.5084 -0.66148,-14.07321 -2.89391,-23.67937 -6.14611,-32.08477 -3.39001,-8.69455 -7.91004,-16.069927 -15.26882,-23.417757 -7.35884,-7.35333 -14.71764,-11.86999 -23.42692,-15.24371 -8.43369,-3.26908 -18.05248,-5.49711 -32.13616,-6.14155 -14.11129,-0.6417 -18.60374,-0.79869 -54.54334,-0.79869 z m -11.86781,23.82263 c 3.52229,-0.005 7.45251,0 11.86781,0 35.32224,0 39.50875,0.12668 53.45738,0.76012 12.89859,0.58937 19.89906,2.74303 24.5624,4.55245 6.17372,2.39603 10.5752,5.260257 15.20268,9.887067 4.63026,4.62682 7.4966,9.03332 9.89992,15.20241 1.8108,4.65436 3.96879,11.64966 4.55584,24.53866 0.63391,13.93552 0.77175,18.12174 0.77175,53.4012 0,35.2795 -0.13784,39.46571 -0.77175,53.40124 -0.5898,12.88896 -2.74505,19.88429 -4.55584,24.53866 -2.39778,6.1691 -5.26966,10.56183 -9.89992,15.18587 -4.63024,4.62683 -9.02623,7.49104 -15.20268,9.88708 -4.65781,1.81771 -11.6638,3.96586 -24.56238,4.5552 -13.94589,0.63344 -18.13516,0.77113 -53.4574,0.77113 -35.32503,0 -39.511542,-0.13769 -53.457442,-0.77113 -12.89858,-0.59484 -19.899075,-2.74855 -24.565169,-4.55796 -6.173678,-2.39602 -10.583441,-5.26024 -15.213696,-9.88706 -4.630255,-4.62682 -7.496608,-9.02232 -9.899935,-15.19413 -1.810755,-4.65437 -3.96879,-11.64971 -4.555847,-24.53872 -0.633897,-13.93552 -0.760684,-18.12166 -0.760684,-53.42322 0,-35.3015 0.126814,-39.46568 0.760684,-53.4012 0.589814,-12.889 2.745092,-19.88431 4.555847,-24.54417 2.397813,-6.1691 5.26968,-10.57559 9.899935,-15.20242 4.630255,-4.62681 9.040018,-7.491037 15.213696,-9.892577 4.663337,-1.81768 11.666589,-3.96584 24.565169,-4.55797 12.20403,-0.5508 16.933512,-0.71605 41.589642,-0.74359 z m 82.48473,21.949837 c -8.76444,0 -15.87516,7.09721 -15.87516,15.85787 0,8.75792 7.11072,15.86338 15.87516,15.86338 8.7644,0 15.87516,-7.10546 15.87516,-15.86338 0,-8.75791 -7.11076,-15.86338 -15.87516,-15.86338 z M 138.35172,132.343 c -37.51889,0 -67.938022,30.39656 -67.938022,67.88759 0,37.49097 30.419132,67.87375 67.938022,67.87375 37.51885,0 67.92693,-30.38278 67.92693,-67.87375 0,-37.49103 -30.41083,-67.88759 -67.92975,-67.88759 z m 0,23.8226 c 24.35292,0 44.09764,19.72737 44.09764,44.06499 0,24.33482 -19.74473,44.06493 -44.09764,44.06493 -24.35573,0 -44.097702,-19.73011 -44.097702,-44.06493 0,-24.33762 19.741982,-44.06499 44.097702,-44.06499 z"
         id="path1068"
         inkscape:connector-curvature="0"
         style="fill:url(#radialGradient1070);fill-opacity:1;stroke-width:0.358224" />
      <path
         d="m 138.35172,68.035713 c -35.9286,0 -40.437602,0.15699 -54.548862,0.79869 -14.08369,0.64444 -23.696985,2.87247 -32.10862,6.14155 -8.701035,3.37647 -16.081883,7.89312 -23.435163,15.24371 -7.358807,7.34783 -11.878816,14.723207 -15.268833,23.415017 -3.2797574,8.40814 -5.5121994,18.01706 -6.1461094,32.08477 -0.631154,14.10082 -0.79651,18.60919 -0.79651,54.51114 0,35.9019 0.159856,40.39377 0.799266,54.49451 0.647681,14.07327 2.877381,23.67944 6.1461104,32.08483 3.381746,8.69455 7.901755,16.06991 15.257805,23.41776 7.350523,7.35331 14.731385,11.88104 23.426893,15.25746 8.417148,3.26908 18.033201,5.49711 32.114141,6.1416 14.11127,0.64166 18.617492,0.79865 54.543312,0.79865 35.93134,0 40.42655,-0.15699 54.53781,-0.79865 14.08371,-0.64449 23.70799,-2.87252 32.12514,-6.1416 8.69828,-3.37642 16.06814,-7.90415 23.41868,-15.25746 7.35879,-7.34785 11.87881,-14.72321 15.26882,-23.41502 3.2522,-8.40813 5.48463,-18.01704 6.14611,-32.0848 0.63388,-14.10077 0.79925,-18.59538 0.79925,-54.49728 0,-35.90195 -0.16536,-40.40756 -0.79925,-54.5084 -0.66148,-14.07321 -2.89391,-23.67937 -6.14611,-32.08477 -3.39001,-8.69455 -7.91004,-16.069927 -15.26882,-23.417757 -7.35884,-7.35333 -14.71764,-11.86999 -23.42692,-15.24371 -8.43369,-3.26908 -18.05248,-5.49711 -32.13616,-6.14155 -14.11129,-0.6417 -18.60374,-0.79869 -54.54334,-0.79869 z m -11.86781,23.82263 c 3.52229,-0.005 7.45251,0 11.86781,0 35.32224,0 39.50875,0.12668 53.45738,0.76012 12.89859,0.58937 19.89906,2.74303 24.5624,4.55245 6.17372,2.39603 10.5752,5.260257 15.20268,9.887067 4.63026,4.62682 7.4966,9.03332 9.89992,15.20241 1.8108,4.65436 3.96879,11.64966 4.55584,24.53866 0.63391,13.93552 0.77175,18.12174 0.77175,53.4012 0,35.2795 -0.13784,39.46571 -0.77175,53.40124 -0.5898,12.88896 -2.74505,19.88429 -4.55584,24.53866 -2.39778,6.1691 -5.26966,10.56183 -9.89992,15.18587 -4.63024,4.62683 -9.02623,7.49104 -15.20268,9.88708 -4.65781,1.81771 -11.6638,3.96586 -24.56238,4.5552 -13.94589,0.63344 -18.13516,0.77113 -53.4574,0.77113 -35.32503,0 -39.511542,-0.13769 -53.457442,-0.77113 -12.89858,-0.59484 -19.899075,-2.74855 -24.565169,-4.55796 -6.173678,-2.39602 -10.583441,-5.26024 -15.213696,-9.88706 -4.630255,-4.62682 -7.496608,-9.02232 -9.899935,-15.19413 -1.810755,-4.65437 -3.96879,-11.64971 -4.555847,-24.53872 -0.633897,-13.93552 -0.760684,-18.12166 -0.760684,-53.42322 0,-35.3015 0.126814,-39.46568 0.760684,-53.4012 0.589814,-12.889 2.745092,-19.88431 4.555847,-24.54417 2.397813,-6.1691 5.26968,-10.57559 9.899935,-15.20242 4.630255,-4.62681 9.040018,-7.491037 15.213696,-9.892577 4.663337,-1.81768 11.666589,-3.96584 24.565169,-4.55797 12.20403,-0.5508 16.933512,-0.71605 41.589642,-0.74359 z m 82.48473,21.949837 c -8.76444,0 -15.87516,7.09721 -15.87516,15.85787 0,8.75792 7.11072,15.86338 15.87516,15.86338 8.7644,0 15.87516,-7.10546 15.87516,-15.86338 0,-8.75791 -7.11076,-15.86338 -15.87516,-15.86338 z M 138.35172,132.343 c -37.51889,0 -67.938022,30.39656 -67.938022,67.88759 0,37.49097 30.419132,67.87375 67.938022,67.87375 37.51885,0 67.92693,-30.38278 67.92693,-67.87375 0,-37.49103 -30.41083,-67.88759 -67.92975,-67.88759 z m 0,23.8226 c 24.35292,0 44.09764,19.72737 44.09764,44.06499 0,24.33482 -19.74473,44.06493 -44.09764,44.06493 -24.35573,0 -44.097702,-19.73011 -44.097702,-44.06493 0,-24.33762 19.741982,-44.06499 44.097702,-44.06499 z"
         id="path28"
         inkscape:connector-curvature="0"
         style="fill:url(#radialGradient1064);fill-opacity:1;stroke-width:0.358224" />
      <path
         d="m 138.35172,68.035713 c -35.9286,0 -40.437602,0.15699 -54.548862,0.79869 -14.08369,0.64444 -23.696985,2.87247 -32.10862,6.14155 -8.701035,3.37647 -16.081883,7.89312 -23.435163,15.24371 -7.358807,7.34783 -11.878816,14.723207 -15.268833,23.415017 -3.2797574,8.40814 -5.5121994,18.01706 -6.1461094,32.08477 -0.631154,14.10082 -0.79651,18.60919 -0.79651,54.51114 0,35.9019 0.159856,40.39377 0.799266,54.49451 0.647681,14.07327 2.877381,23.67944 6.1461104,32.08483 3.381746,8.69455 7.901755,16.06991 15.257805,23.41776 7.350523,7.35331 14.731385,11.88104 23.426893,15.25746 8.417148,3.26908 18.033201,5.49711 32.114141,6.1416 14.11127,0.64166 18.617492,0.79865 54.543312,0.79865 35.93134,0 40.42655,-0.15699 54.53781,-0.79865 14.08371,-0.64449 23.70799,-2.87252 32.12514,-6.1416 8.69828,-3.37642 16.06814,-7.90415 23.41868,-15.25746 7.35879,-7.34785 11.87881,-14.72321 15.26882,-23.41502 3.2522,-8.40813 5.48463,-18.01704 6.14611,-32.0848 0.63388,-14.10077 0.79925,-18.59538 0.79925,-54.49728 0,-35.90195 -0.16536,-40.40756 -0.79925,-54.5084 -0.66148,-14.07321 -2.89391,-23.67937 -6.14611,-32.08477 -3.39001,-8.69455 -7.91004,-16.069927 -15.26882,-23.417757 -7.35884,-7.35333 -14.71764,-11.86999 -23.42692,-15.24371 -8.43369,-3.26908 -18.05248,-5.49711 -32.13616,-6.14155 -14.11129,-0.6417 -18.60374,-0.79869 -54.54334,-0.79869 z m -11.86781,23.82263 c 3.52229,-0.005 7.45251,0 11.86781,0 35.32224,0 39.50875,0.12668 53.45738,0.76012 12.89859,0.58937 19.89906,2.74303 24.5624,4.55245 6.17372,2.39603 10.5752,5.260257 15.20268,9.887067 4.63026,4.62682 7.4966,9.03332 9.89992,15.20241 1.8108,4.65436 3.96879,11.64966 4.55584,24.53866 0.63391,13.93552 0.77175,18.12174 0.77175,53.4012 0,35.2795 -0.13784,39.46571 -0.77175,53.40124 -0.5898,12.88896 -2.74505,19.88429 -4.55584,24.53866 -2.39778,6.1691 -5.26966,10.56183 -9.89992,15.18587 -4.63024,4.62683 -9.02623,7.49104 -15.20268,9.88708 -4.65781,1.81771 -11.6638,3.96586 -24.56238,4.5552 -13.94589,0.63344 -18.13516,0.77113 -53.4574,0.77113 -35.32503,0 -39.511542,-0.13769 -53.457442,-0.77113 -12.89858,-0.59484 -19.899075,-2.74855 -24.565169,-4.55796 -6.173678,-2.39602 -10.583441,-5.26024 -15.213696,-9.88706 -4.630255,-4.62682 -7.496608,-9.02232 -9.899935,-15.19413 -1.810755,-4.65437 -3.96879,-11.64971 -4.555847,-24.53872 -0.633897,-13.93552 -0.760684,-18.12166 -0.760684,-53.42322 0,-35.3015 0.126814,-39.46568 0.760684,-53.4012 0.589814,-12.889 2.745092,-19.88431 4.555847,-24.54417 2.397813,-6.1691 5.26968,-10.57559 9.899935,-15.20242 4.630255,-4.62681 9.040018,-7.491037 15.213696,-9.892577 4.663337,-1.81768 11.666589,-3.96584 24.565169,-4.55797 12.20403,-0.5508 16.933512,-0.71605 41.589642,-0.74359 z m 82.48473,21.949837 c -8.76444,0 -15.87516,7.09721 -15.87516,15.85787 0,8.75792 7.11072,15.86338 15.87516,15.86338 8.7644,0 15.87516,-7.10546 15.87516,-15.86338 0,-8.75791 -7.11076,-15.86338 -15.87516,-15.86338 z M 138.35172,132.343 c -37.51889,0 -67.938022,30.39656 -67.938022,67.88759 0,37.49097 30.419132,67.87375 67.938022,67.87375 37.51885,0 67.92693,-30.38278 67.92693,-67.87375 0,-37.49103 -30.41083,-67.88759 -67.92975,-67.88759 z m 0,23.8226 c 24.35292,0 44.09764,19.72737 44.09764,44.06499 0,24.33482 -19.74473,44.06493 -44.09764,44.06493 -24.35573,0 -44.097702,-19.73011 -44.097702,-44.06493 0,-24.33762 19.741982,-44.06499 44.097702,-44.06499 z"
         id="path1165"
         inkscape:connector-curvature="0"
         style="fill:url(#radialGradient1167);fill-opacity:1;stroke-width:0.358224" />
    </g>
  </g>
  <style
     type="text/css"
     id="style971">
	.st0{clip-path:url(#SVGID_00000130622006894310625020000004174188710254592903_);}
	.st1{clip-path:url(#SVGID_00000051351915170632626820000013518756960088417417_);}
	.st2{clip-path:url(#SVGID_00000021817509185890717940000001189774779219633321_);}
</style>
</svg>
